# Blender v2.92.0 OBJ File: 'desk.blend'
# www.blender.org
mtllib desk.mtl
o Cube.001
v 17.921650 10.516460 -26.243277
v 17.921650 1.273569 -26.243277
v 17.921650 10.516460 26.243277
v 17.921650 1.273569 26.243277
v -17.921650 10.516460 -26.243277
v -17.921650 1.273569 -26.243277
v -17.921650 10.516460 26.243277
v -17.921650 1.273569 26.243277
v 21.293657 5.895015 -31.181021
v -21.293657 5.895015 31.181021
v 21.293657 5.895015 31.181021
v -21.293657 5.895015 -31.181021
v -17.921650 1.273569 0.000000
v 17.921650 10.516460 0.000000
v -17.921650 10.516460 0.000000
v 17.921650 1.273569 0.000000
v 21.293657 5.895015 0.000000
v -21.293657 5.895015 0.000000
v -17.921650 10.516460 -13.121638
v 17.921650 1.273569 -19.936378
v -21.293657 5.895015 -15.590510
v -17.921650 1.273569 -19.936378
v 17.921650 10.516460 -13.121638
v 21.293657 5.895015 -15.590510
v -17.921650 1.273569 19.936378
v 17.921650 10.516460 13.121638
v 21.293657 5.895015 15.590510
v -17.921650 10.516460 13.121638
v 17.921650 1.273569 19.936378
v -21.293657 5.895015 15.590510
v -0.000000 1.273569 -26.243277
v -0.000000 10.516460 26.243277
v -0.000000 1.273569 26.243277
v -0.000000 10.516460 -26.243277
v -0.000000 5.895015 -31.181021
v -0.000000 5.895015 31.181021
v -0.000000 1.273569 0.000000
v -0.000000 10.516460 0.000000
v -0.000000 10.516460 -13.121638
v -0.000000 1.273569 -19.936378
v -0.000000 1.273569 19.936378
v -0.000000 10.516460 13.121638
v -11.303853 1.273569 -26.243277
v -8.960825 10.516460 26.243277
v -10.646829 5.895015 31.181021
v -11.303853 1.273569 0.000000
v -11.303853 1.273569 -19.936378
v -11.303853 1.273569 19.936378
v -11.303853 1.273569 26.243277
v -8.960825 10.516460 -26.243277
v -10.646829 5.895015 -31.181021
v -8.960825 10.516460 0.000000
v -8.960825 10.516460 -13.121638
v -8.960825 10.516460 13.121638
v 11.303853 1.273569 26.243277
v 8.960825 10.516460 -26.243277
v 10.646829 5.895015 -31.181021
v 8.960825 10.516460 0.000000
v 8.960825 10.516460 -13.121638
v 8.960825 10.516460 13.121638
v 11.303853 1.273569 -26.243277
v 8.960825 10.516460 26.243277
v 10.646829 5.895015 31.181021
v 11.303853 1.273569 0.000000
v 11.303853 1.273569 -19.936378
v 11.303853 1.273569 19.936378
v -17.921650 -43.323174 19.936378
v -17.921650 -43.323174 26.243277
v -11.303853 -43.323174 -26.243277
v -17.921650 -43.323174 -26.243277
v 11.303853 -43.323174 26.243277
v 17.921650 -43.323174 26.243277
v 17.921650 -43.323174 -19.936378
v 17.921650 -43.323174 -26.243277
v -17.921650 -43.323174 -19.936378
v -11.303853 -43.323174 -19.936378
v 17.921650 -43.323174 19.936378
v -11.303853 -43.323174 19.936378
v -11.303853 -43.323174 26.243277
v 11.303853 -43.323174 -26.243277
v 11.303853 -43.323174 -19.936378
v 11.303853 -43.323174 19.936378
v 17.921650 -5.001554 26.243277
v 17.921650 -5.001554 19.936378
v 11.303853 -5.001554 19.936378
v 11.303853 -5.001554 26.243277
v -17.921650 -4.876977 26.243277
v -11.303853 -4.876977 26.243277
v -17.921650 -4.876977 19.936378
v -11.303853 -4.876977 19.936378
v -17.921650 -4.876977 -26.243277
v -17.921650 -4.876977 -19.936378
v -11.303853 -4.876977 -19.936378
v -11.303853 -4.876977 -26.243277
v 17.921650 -4.876977 -19.936378
v 17.921650 -4.876977 -26.243277
v 11.303853 -4.876977 -26.243277
v 11.303853 -4.876977 -19.936378
v 17.921650 -7.223242 -19.936378
v 11.303853 -7.223242 -26.243277
v 17.921650 -7.223242 -26.243277
v 11.303853 -7.223242 -19.936378
v -17.921650 -7.223242 26.243277
v -17.921650 -7.223242 19.936378
v -11.303853 -7.223242 19.936378
v -11.303853 -7.223242 26.243277
v 17.921650 -7.285529 26.243277
v 11.303853 -7.285529 26.243277
v 17.921650 -7.285529 19.936378
v 11.303853 -7.285529 19.936378
v -17.921650 -7.223242 -26.243277
v -11.303853 -7.223242 -19.936378
v -17.921650 -7.223242 -19.936378
v -11.303853 -7.223242 -26.243277
vt 0.483707 0.286278
vt 0.535105 0.286278
vt 0.535105 0.361538
vt 0.483707 0.361538
vt 0.504364 0.422031
vt 0.576416 0.422031
vt 0.576416 0.105507
vt 0.535105 0.135754
vt 0.535105 0.060493
vt 0.576416 0.000000
vt 0.718643 0.686905
vt 0.718643 0.723078
vt 0.511585 0.723078
vt 0.511585 0.686905
vt 0.288208 0.316525
vt 0.329519 0.286278
vt 0.329519 0.361538
vt 0.288208 0.422031
vt 0.360260 0.000000
vt 0.380917 0.060493
vt 0.329519 0.060493
vt 0.288208 0.000000
vt 0.208939 0.060493
vt 0.216156 0.000000
vt 0.246897 0.060493
vt 0.246897 0.325363
vt 0.246897 0.361538
vt 0.041311 0.096668
vt 0.000000 0.105507
vt 0.000000 0.000000
vt 0.041311 0.060493
vt 0.079269 0.361538
vt 0.072052 0.422031
vt 0.000000 0.422031
vt 0.041311 0.361538
vt 0.041311 0.325363
vt 0.000000 0.316525
vt 0.000000 0.211018
vt 0.041311 0.211018
vt 0.246897 0.096668
vt 0.288208 0.105507
vt 0.288208 0.211018
vt 0.246897 0.211018
vt 0.329519 0.135754
vt 0.329519 0.211018
vt 0.208939 0.096668
vt 0.208939 0.211018
vt 0.576416 0.316525
vt 0.535105 0.211018
vt 0.576416 0.211018
vt 0.483707 0.135754
vt 0.483707 0.211018
vt 0.483707 0.060493
vt 0.396540 0.929779
vt 0.358582 0.929779
vt 0.358582 0.723080
vt 0.396540 0.723080
vt 0.208939 0.325363
vt 0.380917 0.211018
vt 0.432312 0.211018
vt 0.432312 0.286278
vt 0.380917 0.286278
vt 0.079269 0.211018
vt 0.144104 0.211018
vt 0.144104 0.325363
vt 0.079269 0.325363
vt 0.079269 0.060493
vt 0.144104 0.060493
vt 0.144104 0.096668
vt 0.079269 0.096668
vt 0.432312 0.060493
vt 0.432312 0.135754
vt 0.380917 0.135754
vt 0.208939 0.361538
vt 0.216156 0.422031
vt 0.144104 0.422031
vt 0.144104 0.361538
vt 0.072052 0.000000
vt 0.144104 0.000000
vt 0.504364 0.000000
vt 0.432312 0.000000
vt 0.360260 0.422031
vt 0.380917 0.361538
vt 0.432312 0.361538
vt 0.432312 0.422031
vt 0.462490 0.686905
vt 0.462490 0.723078
vt 0.255791 0.723078
vt 0.255791 0.686905
vt 0.462849 0.422033
vt 0.462849 0.458208
vt 0.255791 0.458208
vt 0.255791 0.422033
vt 0.584795 0.761036
vt 0.584795 0.723078
vt 0.620970 0.723078
vt 0.620970 0.761036
vt 0.548622 0.761036
vt 0.548622 0.723078
vt 0.584797 0.723078
vt 0.584797 0.761036
vt 0.620970 0.761035
vt 0.620970 0.723078
vt 0.657145 0.723078
vt 0.657145 0.761035
vt 0.512447 0.761035
vt 0.512447 0.723078
vt 0.548622 0.723078
vt 0.548622 0.761035
vt 0.805334 0.629089
vt 0.767376 0.629089
vt 0.767376 0.422031
vt 0.805334 0.422031
vt 0.207058 0.686905
vt 0.207058 0.723078
vt 0.000000 0.723078
vt 0.000000 0.686905
vt 0.614374 0.207058
vt 0.576416 0.207058
vt 0.576416 0.000000
vt 0.614374 0.000000
vt 0.432714 0.930138
vt 0.396540 0.930138
vt 0.396540 0.723080
vt 0.432714 0.723080
vt 0.207058 0.422033
vt 0.207058 0.458208
vt 0.000000 0.458208
vt 0.000000 0.422033
vt 0.972961 0.628731
vt 0.935003 0.628731
vt 0.935003 0.422031
vt 0.972961 0.422031
vt 0.782001 0.207058
vt 0.744043 0.207058
vt 0.744043 0.000000
vt 0.782001 0.000000
vt 0.718285 0.422033
vt 0.718285 0.458208
vt 0.511585 0.458208
vt 0.511585 0.422033
vt 0.805334 0.884884
vt 0.767376 0.884884
vt 0.767376 0.677826
vt 0.805334 0.677826
vt 0.358582 0.930138
vt 0.320625 0.930138
vt 0.320625 0.723080
vt 0.358582 0.723080
vt 0.972961 0.884884
vt 0.935003 0.884884
vt 0.935003 0.677826
vt 0.972961 0.677826
vt 0.468889 0.930138
vt 0.432714 0.930138
vt 0.432714 0.723080
vt 0.468889 0.723080
vt 0.767376 0.422033
vt 0.767376 0.458208
vt 0.731384 0.458208
vt 0.731384 0.422033
vt 0.972961 0.677822
vt 0.935003 0.677822
vt 0.935003 0.641830
vt 0.972961 0.641830
vt 0.511581 0.686905
vt 0.511581 0.723078
vt 0.475590 0.723078
vt 0.475590 0.686905
vt 0.657144 0.761036
vt 0.657144 0.723078
vt 0.693136 0.723078
vt 0.693136 0.761036
vt 0.576416 0.421637
vt 0.576416 0.385462
vt 0.611693 0.385462
vt 0.611693 0.421637
vt 0.728414 0.723078
vt 0.728414 0.761036
vt 0.693136 0.761036
vt 0.693136 0.723078
vt 0.255791 0.422033
vt 0.255791 0.458208
vt 0.220516 0.458208
vt 0.220516 0.422033
vt 0.805334 0.677822
vt 0.767376 0.677822
vt 0.767376 0.642548
vt 0.805334 0.642548
vt 0.805334 0.933617
vt 0.767376 0.933617
vt 0.767376 0.898342
vt 0.805334 0.898342
vt 0.782001 0.255791
vt 0.744043 0.255791
vt 0.744043 0.220516
vt 0.782001 0.220516
vt 0.611693 0.421637
vt 0.611693 0.385462
vt 0.646971 0.385462
vt 0.646971 0.421637
vt 0.255791 0.686905
vt 0.255791 0.723078
vt 0.220516 0.723078
vt 0.220516 0.686905
vt 0.972961 0.933617
vt 0.935003 0.933617
vt 0.935003 0.898342
vt 0.972961 0.898342
vt 0.614374 0.255791
vt 0.576416 0.255791
vt 0.576416 0.220516
vt 0.614374 0.220516
vt 0.511581 0.422033
vt 0.511581 0.458208
vt 0.476307 0.458208
vt 0.476307 0.422033
vt 0.767376 0.686905
vt 0.767376 0.723078
vt 0.732101 0.723078
vt 0.732101 0.686905
vt 0.244711 0.951775
vt 0.206753 0.951775
vt 0.206753 0.723078
vt 0.244711 0.723078
vt 0.648764 0.255792
vt 0.684938 0.255792
vt 0.684938 0.385462
vt 0.648764 0.385462
vt 0.721113 0.385462
vt 0.684938 0.385462
vt 0.684938 0.255792
vt 0.721113 0.255792
vt 0.612591 0.255792
vt 0.648766 0.255792
vt 0.648766 0.385462
vt 0.612591 0.385462
vt 0.734571 0.385463
vt 0.721113 0.385499
vt 0.721470 0.255828
vt 0.734571 0.255792
vt 0.612591 0.385462
vt 0.576416 0.385462
vt 0.576416 0.255792
vt 0.612591 0.255792
vt 0.320624 0.951775
vt 0.282667 0.951775
vt 0.282667 0.723078
vt 0.320624 0.723078
vt 0.282667 0.951775
vt 0.244710 0.951775
vt 0.244710 0.723078
vt 0.282667 0.723078
vt 0.468888 0.723078
vt 0.482346 0.723078
vt 0.482346 0.951775
vt 0.468888 0.951775
vt 0.206753 0.951775
vt 0.168795 0.951775
vt 0.168795 0.723078
vt 0.206753 0.723078
vn 0.0000 1.0000 0.0000
vn 0.0000 0.7301 0.6833
vn -0.8078 0.5894 0.0000
vn -1.0000 0.0000 0.0000
vn 0.8078 0.5894 0.0000
vn 0.0000 0.7301 -0.6833
vn 0.0000 -0.7301 -0.6833
vn 0.8078 -0.5894 0.0000
vn -0.8078 -0.5894 0.0000
vn 0.0000 -0.7301 0.6833
vn 0.0000 -1.0000 0.0000
vn 0.0000 0.0000 -1.0000
vn 1.0000 0.0000 0.0000
vn 0.0000 0.0000 1.0000
vn 0.0055 1.0000 0.0000
vn -0.0028 -1.0000 0.0000
vn 0.0000 -1.0000 -0.0016
vn 0.0000 1.0000 0.0031
usemtl Material.001
s off
f 54/1/1 28/2/1 7/3/1 44/4/1
f 45/5/2 44/4/2 7/3/2 10/6/2
f 21/7/3 19/8/3 5/9/3 12/10/3
f 102/11/4 100/12/4 80/13/4 81/14/4
f 27/15/5 26/16/5 3/17/5 11/18/5
f 57/19/6 56/20/6 1/21/6 9/22/6
f 61/23/7 57/24/7 9/22/7 2/25/7
f 29/26/8 27/15/8 11/18/8 4/27/8
f 22/28/9 21/29/9 12/30/9 6/31/9
f 49/32/10 45/33/10 10/34/10 8/35/10
f 25/36/9 30/37/9 18/38/9 13/39/9
f 20/40/8 24/41/8 17/42/8 16/43/8
f 24/41/5 23/44/5 14/45/5 17/42/5
f 65/46/11 20/40/11 16/43/11 64/47/11
f 30/48/3 28/2/3 15/49/3 18/50/3
f 53/51/1 19/8/1 15/49/1 52/52/1
f 50/53/1 5/9/1 19/8/1 53/51/1
f 110/54/12 109/55/12 77/56/12 82/57/12
f 9/22/5 1/21/5 23/44/5 24/41/5
f 2/25/8 9/22/8 24/41/8 20/40/8
f 13/39/9 18/38/9 21/29/9 22/28/9
f 18/50/3 15/49/3 19/8/3 21/7/3
f 10/6/3 7/3/3 28/2/3 30/48/3
f 8/35/9 10/34/9 30/37/9 25/36/9
f 16/43/8 17/42/8 27/15/8 29/26/8
f 17/42/5 14/45/5 26/16/5 27/15/5
f 64/47/11 16/43/11 29/26/11 66/58/11
f 52/52/1 15/49/1 28/2/1 54/1/1
f 58/59/1 38/60/1 42/61/1 60/62/1
f 46/63/11 37/64/11 41/65/11 48/66/11
f 43/67/11 31/68/11 40/69/11 47/70/11
f 56/20/1 34/71/1 39/72/1 59/73/1
f 59/73/1 39/72/1 38/60/1 58/59/1
f 47/70/11 40/69/11 37/64/11 46/63/11
f 55/74/10 63/75/10 36/76/10 33/77/10
f 43/67/7 51/78/7 35/79/7 31/68/7
f 51/80/6 50/53/6 34/71/6 35/81/6
f 48/66/11 41/65/11 33/77/11 49/32/11
f 63/82/2 62/83/2 32/84/2 36/85/2
f 60/62/1 42/61/1 32/84/1 62/83/1
f 109/86/13 107/87/13 72/88/13 77/89/13
f 12/10/6 5/9/6 50/53/6 51/80/6
f 6/31/7 12/30/7 51/78/7 43/67/7
f 22/28/11 47/70/11 46/63/11 13/39/11
f 101/90/13 99/91/13 73/92/13 74/93/13
f 13/39/11 46/63/11 48/66/11 25/36/11
f 38/60/1 52/52/1 54/1/1 42/61/1
f 34/71/1 50/53/1 53/51/1 39/72/1
f 39/72/1 53/51/1 52/52/1 38/60/1
f 33/77/10 36/76/10 45/33/10 49/32/10
f 36/85/2 32/84/2 44/4/2 45/5/2
f 42/61/1 54/1/1 44/4/1 32/84/1
f 26/16/1 60/62/1 62/83/1 3/17/1
f 11/18/2 3/17/2 62/83/2 63/82/2
f 4/27/10 11/18/10 63/75/10 55/74/10
f 23/44/1 59/73/1 58/59/1 14/45/1
f 1/21/1 56/20/1 59/73/1 23/44/1
f 14/45/1 58/59/1 60/62/1 26/16/1
f 37/64/11 64/47/11 66/58/11 41/65/11
f 31/68/11 61/23/11 65/46/11 40/69/11
f 40/69/11 65/46/11 64/47/11 37/64/11
f 31/68/7 35/79/7 57/24/7 61/23/7
f 35/81/6 34/71/6 56/20/6 57/19/6
f 41/65/11 66/58/11 55/74/11 33/77/11
f 82/94/11 77/95/11 72/96/11 71/97/11
f 80/98/11 74/99/11 73/100/11 81/101/11
f 67/102/11 78/103/11 79/104/11 68/105/11
f 70/106/11 69/107/11 76/108/11 75/109/11
f 106/110/14 103/111/14 68/112/14 79/113/14
f 113/114/4 111/115/4 70/116/4 75/117/4
f 100/118/12 101/119/12 74/120/12 80/121/12
f 114/122/13 112/123/13 76/124/13 69/125/13
f 103/126/4 104/127/4 67/128/4 68/129/4
f 107/130/14 108/131/14 71/132/14 72/133/14
f 111/134/12 114/135/12 69/136/12 70/137/12
f 108/138/4 110/139/4 82/140/4 71/141/4
f 112/142/14 113/143/14 75/144/14 76/145/14
f 104/146/12 105/147/12 78/148/12 67/149/12
f 99/150/14 102/151/14 81/152/14 73/153/14
f 105/154/13 106/155/13 79/156/13 78/157/13
f 55/158/4 66/159/4 85/160/4 86/161/4
f 4/162/14 55/163/14 86/164/14 83/165/14
f 29/166/13 4/167/13 83/168/13 84/169/13
f 66/170/12 29/171/12 84/172/12 85/173/12
f 48/174/13 49/175/13 88/176/13 90/177/13
f 25/178/12 48/179/12 90/180/12 89/181/12
f 8/182/4 25/183/4 89/184/4 87/185/4
f 49/186/14 8/187/14 87/188/14 88/189/14
f 47/190/14 22/191/14 92/192/14 93/193/14
f 6/194/12 43/195/12 94/196/12 91/197/12
f 43/198/13 47/199/13 93/200/13 94/201/13
f 22/202/4 6/203/4 91/204/4 92/205/4
f 20/206/14 65/207/14 98/208/14 95/209/14
f 61/210/12 2/211/12 96/212/12 97/213/12
f 2/214/13 20/215/13 95/216/13 96/217/13
f 65/218/4 61/219/4 97/220/4 98/221/4
f 95/209/14 98/208/14 102/151/14 99/150/14
f 97/213/12 96/212/12 101/119/12 100/118/12
f 96/217/13 95/216/13 99/91/13 101/90/13
f 98/221/4 97/220/4 100/12/4 102/11/4
f 114/135/12 94/196/12 97/213/12 100/118/12
f 84/169/13 109/86/13 99/91/13 95/216/13
f 87/185/4 89/184/4 104/127/4 103/126/4
f 88/189/14 87/188/14 103/111/14 106/110/14
f 86/161/4 85/160/4 110/139/4 108/138/4
f 83/165/14 86/164/14 108/131/14 107/130/14
f 84/169/13 83/168/13 107/87/13 109/86/13
f 105/222/11 104/223/11 113/224/11 112/225/11
f 93/193/14 92/192/14 113/143/14 112/142/14
f 91/197/12 94/196/12 114/135/12 111/134/12
f 90/226/15 88/227/15 86/228/15 85/229/15
f 92/205/4 91/204/4 111/115/4 113/114/4
f 93/193/14 112/142/14 102/151/14 98/208/14
f 106/230/16 105/231/16 110/232/16 108/233/16
f 94/234/1 93/235/1 98/236/1 97/237/1
f 105/238/12 90/239/12 85/240/12 110/241/12
f 88/189/14 106/110/14 108/131/14 86/164/14
f 112/242/11 114/243/11 100/244/11 102/245/11
f 104/127/4 89/184/4 92/205/4 113/114/4
f 110/139/4 85/160/4 98/221/4 102/11/4
f 89/246/1 90/247/1 93/248/1 92/249/1
f 109/250/17 110/251/17 102/252/17 99/253/17
f 90/254/13 105/255/13 112/256/13 93/257/13
f 85/258/18 84/259/18 95/260/18 98/261/18
