# Blender v2.92.0 OBJ File: 'Crystal.blend'
# www.blender.org
mtllib itemCrystal2.mtl
o Cube
v 0.476241 3.358586 -0.585648
v 0.607442 1.917127 -0.582157
v 0.385980 3.170126 0.604034
v 0.727522 1.850745 0.480716
v -0.551085 3.510236 -0.486998
v -0.713975 1.917127 -0.453407
v -0.486486 3.519513 0.590521
v -0.471165 1.850745 0.496700
v 0.005617 1.805061 -0.766934
v 0.005617 3.995347 0.770588
v 0.005617 1.290274 0.711520
v -0.166453 4.078674 -0.610920
v -0.810144 1.590522 0.002273
v 0.821379 3.730021 0.002273
v -0.810144 4.396068 0.002273
v 0.821379 1.590522 0.002273
v 0.005617 -0.836182 0.113920
v 0.005617 5.830444 -0.091539
v -0.614350 3.946668 -0.269211
v 0.821379 1.753825 -0.208830
v -0.810144 1.753825 -0.264916
v 0.701312 3.544304 -0.323453
v -0.042404 0.484440 -0.505752
v -0.080418 4.560323 -0.530339
v -0.810144 1.720634 0.270645
v 0.714364 3.741564 0.490279
v -0.125472 0.227046 0.526990
v 0.005617 4.912895 0.468608
v -0.694057 3.988078 0.334054
v 0.821379 1.720634 0.254933
v 0.577897 2.637856 -0.561250
v -0.525642 2.685129 0.662100
v 0.580241 2.685129 0.666671
v -0.589730 2.849870 -0.610398
v -0.080418 2.941868 -0.788196
v 0.005617 2.642811 0.830407
v 0.821379 2.660272 0.002273
v -0.810144 2.660272 0.002273
v 0.821379 2.649064 -0.140176
v -0.810144 2.649064 -0.228322
v -0.810144 2.672700 0.243647
v 0.821379 2.672700 0.155087
vt 0.750000 0.687500
vt 0.875000 0.687500
vt 0.875000 0.750000
vt 0.750000 0.750000
vt 0.500000 0.875000
vt 0.625000 0.875000
vt 0.625000 1.000000
vt 0.500000 1.000000
vt 0.500000 0.187500
vt 0.625000 0.187500
vt 0.625000 0.250000
vt 0.500000 0.250000
vt 0.307585 0.836666
vt 0.145338 0.619494
vt 0.184078 0.598859
vt 0.342213 0.676230
vt 0.140485 0.476455
vt 0.135633 0.333415
vt 0.176923 0.348104
vt 0.180501 0.473482
vt 0.592366 0.547031
vt 0.592366 0.719000
vt 0.454479 0.619399
vt 0.425378 0.513346
vt 0.625000 0.375000
vt 0.500000 0.375000
vt 0.125000 0.687500
vt 0.250000 0.687500
vt 0.250000 0.750000
vt 0.125000 0.750000
vt 0.342213 0.269436
vt 0.342213 0.472833
vt 0.257740 0.133784
vt 0.410981 0.651558
vt 0.572075 0.793293
vt 0.472083 0.994174
vt 0.367484 0.683717
vt 0.125000 0.562500
vt 0.250000 0.562500
vt 0.250000 0.625000
vt 0.125000 0.625000
vt 0.063167 0.482142
vt 0.047171 0.347956
vt 0.094342 0.318726
vt 0.100470 0.479428
vt 0.515191 0.183188
vt 0.369245 0.385201
vt 0.342213 0.363108
vt 0.342286 0.000000
vt 0.500000 0.062500
vt 0.625000 0.062500
vt 0.625000 0.125000
vt 0.500000 0.125000
vt 0.750000 0.562500
vt 0.875000 0.562500
vt 0.875000 0.625000
vt 0.750000 0.625000
vt 0.750000 0.500000
vt 0.875000 0.500000
vt 0.592366 0.375061
vt 0.396277 0.407294
vt 0.025863 0.484857
vt 0.000000 0.377186
vt 0.125000 0.500000
vt 0.250000 0.500000
vt 0.500000 0.000000
vt 0.625000 0.000000
vt 0.105545 0.000000
vt 0.197629 1.000000
vt 0.106598 0.640130
vt 0.375000 0.000000
vt 0.375000 0.062500
vt 0.375000 0.125000
vt 0.375000 0.187500
vt 0.051726 0.592528
vt 0.079162 0.616329
vt 0.375000 0.250000
vt 0.375000 0.375000
vt 0.375000 0.875000
vt 0.375000 1.000000
vn -0.5140 0.2532 0.8196
vn -0.3452 0.0624 0.9364
vn -0.8772 0.1246 -0.4637
vn 0.5774 -0.2815 0.7664
vn 0.7295 0.0215 0.6836
vn 0.2690 0.1060 -0.9573
vn -0.4080 0.1402 -0.9021
vn -0.5109 -0.0928 0.8546
vn 0.3995 0.1029 0.9110
vn 0.4120 0.1596 0.8971
vn 0.6628 0.2724 -0.6975
vn -0.8013 -0.3258 -0.5017
vn 0.9645 0.0345 -0.2619
vn 0.7436 -0.3081 -0.5934
vn -0.9753 0.0306 0.2187
vn -0.6066 0.2701 -0.7477
vn -0.6329 0.2535 -0.7316
vn 0.5294 -0.2828 -0.7998
vn 0.8189 0.0388 -0.5727
vn -0.5035 -0.2054 -0.8392
vn 0.4361 0.2419 -0.8668
vn -0.9128 0.0535 -0.4050
vn -0.7900 0.0517 0.6109
vn 0.8149 0.3947 0.4244
vn -0.8815 -0.3034 0.3618
vn 0.9862 0.0237 0.1638
vn 0.7329 -0.2683 0.6252
vn -0.6314 0.3941 0.6678
vn 1.0000 0.0000 0.0000
vn -0.7082 -0.0760 0.7019
vn -1.0000 0.0000 0.0000
vn 0.8694 0.0432 -0.4923
vn 0.3350 -0.1079 0.9360
vn -0.3713 -0.0729 -0.9257
vn 0.3132 0.0193 -0.9495
vn 0.9130 0.0558 0.4040
vn -0.8818 0.0289 -0.4708
vn -0.4180 -0.1273 0.8995
usemtl Material
s off
f 28/1/1 29/2/1 7/3/1 10/4/1
f 36/5/2 10/6/2 7/7/2 32/8/2
f 40/9/3 19/10/3 5/11/3 34/12/3
f 27/13/4 30/14/4 4/15/4 11/16/4
f 42/17/5 26/18/5 3/19/5 33/20/5
f 35/21/6 12/22/6 1/23/6 31/24/6
f 34/12/7 5/11/7 12/25/7 35/26/7
f 25/27/8 27/28/8 11/29/8 8/30/8
f 33/20/9 3/19/9 10/31/9 36/32/9
f 26/18/10 28/33/10 10/31/10 3/19/10
f 22/34/11 24/35/11 18/36/11 14/37/11
f 21/38/12 23/39/12 17/40/12 13/41/12
f 39/42/13 22/43/13 14/44/13 37/45/13
f 23/46/14 20/47/14 16/48/14 17/49/14
f 41/50/15 29/51/15 15/52/15 38/53/15
f 24/54/16 19/55/16 15/56/16 18/57/16
f 12/58/17 5/59/17 19/55/17 24/54/17
f 9/60/18 2/61/18 20/47/18 23/46/18
f 31/62/19 1/63/19 22/43/19 39/42/19
f 6/64/20 9/65/20 23/39/20 21/38/20
f 1/23/21 12/22/21 24/35/21 22/34/21
f 38/53/22 15/52/22 19/10/22 40/9/22
f 32/66/23 7/67/23 29/51/23 41/50/23
f 14/44/24 18/68/24 28/33/24 26/18/24
f 13/41/25 17/40/25 27/28/25 25/27/25
f 37/45/26 14/44/26 26/18/26 42/17/26
f 17/69/27 16/70/27 30/14/27 27/13/27
f 18/57/28 15/56/28 29/2/28 28/1/28
f 16/70/29 37/45/29 42/17/29 30/14/29
f 8/71/30 32/66/30 41/50/30 25/72/30
f 13/73/31 38/53/31 40/9/31 21/74/31
f 2/75/32 31/62/32 39/42/32 20/76/32
f 25/72/31 41/50/31 38/53/31 13/73/31
f 20/76/29 39/42/29 37/45/29 16/70/29
f 4/15/33 33/20/33 36/32/33 11/16/33
f 6/77/34 34/12/34 35/26/34 9/78/34
f 9/60/35 35/21/35 31/24/35 2/61/35
f 30/14/36 42/17/36 33/20/36 4/15/36
f 21/74/37 40/9/37 34/12/37 6/77/37
f 11/79/38 36/5/38 32/8/38 8/80/38
