# Blender v2.92.0 OBJ File: 'ceiling.blend'
# www.blender.org
mtllib ceiling.mtl
o Cube
v 1.000000 1.000000 -1.000000
v 0.102248 0.893794 -0.102248
v 1.000000 1.000000 1.000000
v 0.102248 0.893794 0.102248
v -1.000000 1.000000 -1.000000
v -0.102248 0.893794 -0.102248
v -1.000000 1.000000 1.000000
v -0.102248 0.893794 0.102248
v 0.160569 0.965379 -0.160569
v -0.160569 0.965379 0.160569
v 0.160569 0.965379 0.160569
v -0.160569 0.965379 -0.160569
v -0.150311 0.893794 0.000000
v 1.000000 1.000000 0.000000
v -1.000000 1.000000 0.000000
v 0.150311 0.893794 0.000000
v 0.218398 0.965379 0.000000
v -0.218398 0.965379 0.000000
v 0.000000 0.893794 -0.150311
v 0.000000 1.000000 1.000000
v 0.000000 0.893794 0.150311
v 0.000000 1.000000 -1.000000
v 0.000000 0.965379 -0.218398
v 0.000000 0.965379 0.218398
v 0.000000 0.860773 0.000000
v 0.000000 1.000000 0.000000
vt 0.250000 0.750000
vt 0.500000 0.750000
vt 0.500000 1.000000
vt 0.250000 1.000000
vt 0.250000 0.339512
vt 0.250000 0.500000
vt 0.000000 0.500000
vt 0.160488 0.339512
vt 0.160488 0.250000
vt 0.000000 0.250000
vt 0.000000 0.000000
vt 0.160488 0.160488
vt 0.250000 0.250000
vt 0.339512 0.250000
vt 0.312014 0.312014
vt 0.250000 0.339512
vt 0.339512 0.250000
vt 0.500000 0.250000
vt 0.500000 0.500000
vt 0.339512 0.339512
vt 0.250000 0.160488
vt 0.250000 0.000000
vt 0.500000 0.000000
vt 0.339512 0.160488
vt 0.250000 0.160488
vt 0.312014 0.187986
vt 0.160488 0.250000
vt 0.187986 0.187986
vt 0.187986 0.312014
vt 0.250000 0.500000
vt 0.500000 0.500000
vt 0.000000 0.500000
vt 0.000000 0.750000
vt 0.000000 1.000000
vn 0.0000 1.0000 0.0000
vn -0.0021 -0.9991 0.0416
vn -0.0416 -0.9991 -0.0021
vn 0.1574 -0.9749 0.1574
vn 0.0416 -0.9991 0.0021
vn 0.0021 -0.9991 -0.0416
vn 0.2681 -0.6967 -0.6654
vn 0.6654 -0.6967 0.2681
vn -0.6654 -0.6967 -0.2681
vn -0.2681 -0.6967 0.6654
vn -0.6654 -0.6967 0.2681
vn 0.6654 -0.6967 -0.2681
vn 0.0416 -0.9991 -0.0021
vn 0.1574 -0.9749 -0.1574
vn -0.0416 -0.9991 0.0021
vn -0.1574 -0.9749 -0.1574
vn 0.2681 -0.6967 0.6654
vn -0.2681 -0.6967 -0.6654
vn -0.0021 -0.9991 -0.0416
vn -0.1574 -0.9749 0.1574
vn 0.0021 -0.9991 0.0416
usemtl Material
s off
f 26/1/1 15/2/1 7/3/1 20/4/1
f 24/5/2 20/6/2 7/7/2 10/8/2
f 18/9/3 15/10/3 5/11/3 12/12/3
f 25/13/4 16/14/4 4/15/4 21/16/4
f 17/17/5 14/18/5 3/19/5 11/20/5
f 23/21/6 22/22/6 1/23/6 9/24/6
f 19/25/7 23/21/7 9/24/7 2/26/7
f 16/14/8 17/17/8 11/20/8 4/15/8
f 13/27/9 18/9/9 12/12/9 6/28/9
f 21/16/10 24/5/10 10/8/10 8/29/10
f 8/29/11 10/8/11 18/9/11 13/27/11
f 2/26/12 9/24/12 17/17/12 16/14/12
f 9/24/13 1/23/13 14/18/13 17/17/13
f 19/25/14 2/26/14 16/14/14 25/13/14
f 10/8/15 7/7/15 15/10/15 18/9/15
f 22/30/1 5/31/1 15/2/1 26/1/1
f 1/32/1 22/30/1 26/1/1 14/33/1
f 6/28/16 19/25/16 25/13/16 13/27/16
f 4/15/17 11/20/17 24/5/17 21/16/17
f 6/28/18 12/12/18 23/21/18 19/25/18
f 12/12/19 5/11/19 22/22/19 23/21/19
f 13/27/20 25/13/20 21/16/20 8/29/20
f 11/20/21 3/19/21 20/6/21 24/5/21
f 14/33/1 26/1/1 20/4/1 3/34/1
