# Blender v2.92.0 OBJ File: 'ceiling.blend'
# www.blender.org
mtllib ceiling.mtl
o Cube
v 1.000000 1.000000 -1.000000
v 0.102248 0.897879 -0.102248
v 1.000000 1.000000 1.000000
v 0.102248 0.897879 0.102248
v -1.000000 1.000000 -1.000000
v -0.102248 0.897879 -0.102248
v -1.000000 1.000000 1.000000
v -0.102248 0.897879 0.102248
v 0.160569 1.000000 -0.160569
v -0.160569 1.000000 0.160569
v 0.160569 1.000000 0.160569
v -0.160569 1.000000 -0.160569
v -0.150311 0.897879 0.000000
v 1.000000 1.000000 0.000000
v -1.000000 1.000000 0.000000
v 0.150311 0.897879 0.000000
v 0.218398 1.000000 0.000000
v -0.218398 1.000000 0.000000
v 0.000000 0.897879 -0.150311
v 0.000000 1.000000 1.000000
v 0.000000 0.897879 0.150311
v 0.000000 1.000000 -1.000000
v 0.000000 1.000000 -0.218398
v 0.000000 1.000000 0.218398
v 0.000000 0.864857 0.000000
v 0.000000 1.000000 0.000000
vt 0.250000 0.750000
vt 0.500000 0.750000
vt 0.500000 1.000000
vt 0.250000 1.000000
vt 0.250000 0.339512
vt 0.250000 0.500000
vt 0.000000 0.500000
vt 0.160488 0.339512
vt 0.160488 0.250000
vt 0.000000 0.250000
vt 0.000000 0.000000
vt 0.160488 0.160488
vt 0.250000 0.250000
vt 0.339512 0.250000
vt 0.312014 0.312014
vt 0.250000 0.339512
vt 0.339512 0.250000
vt 0.500000 0.250000
vt 0.500000 0.500000
vt 0.339512 0.339512
vt 0.250000 0.160488
vt 0.250000 0.000000
vt 0.500000 0.000000
vt 0.339512 0.160488
vt 0.250000 0.160488
vt 0.312014 0.187986
vt 0.160488 0.250000
vt 0.187986 0.187986
vt 0.187986 0.312014
vt 0.250000 0.500000
vt 0.500000 0.500000
vt 0.000000 0.500000
vt 0.000000 0.750000
vt 0.000000 1.000000
vn 0.0000 1.0000 0.0000
vn 0.0000 -1.0000 0.0000
vn 0.1574 -0.9749 0.1574
vn 0.3089 -0.5628 -0.7667
vn 0.7667 -0.5627 0.3089
vn -0.7667 -0.5627 -0.3089
vn -0.3089 -0.5628 0.7667
vn -0.7667 -0.5627 0.3089
vn 0.7667 -0.5627 -0.3089
vn 0.1574 -0.9749 -0.1574
vn -0.1574 -0.9749 -0.1574
vn 0.3089 -0.5627 0.7667
vn -0.3089 -0.5627 -0.7667
vn -0.1574 -0.9749 0.1574
usemtl Material
s off
f 26/1/1 15/2/1 7/3/1 20/4/1
f 24/5/2 20/6/2 7/7/2 10/8/2
f 18/9/2 15/10/2 5/11/2 12/12/2
f 25/13/3 16/14/3 4/15/3 21/16/3
f 17/17/2 14/18/2 3/19/2 11/20/2
f 23/21/2 22/22/2 1/23/2 9/24/2
f 19/25/4 23/21/4 9/24/4 2/26/4
f 16/14/5 17/17/5 11/20/5 4/15/5
f 13/27/6 18/9/6 12/12/6 6/28/6
f 21/16/7 24/5/7 10/8/7 8/29/7
f 8/29/8 10/8/8 18/9/8 13/27/8
f 2/26/9 9/24/9 17/17/9 16/14/9
f 9/24/2 1/23/2 14/18/2 17/17/2
f 19/25/10 2/26/10 16/14/10 25/13/10
f 10/8/2 7/7/2 15/10/2 18/9/2
f 22/30/1 5/31/1 15/2/1 26/1/1
f 1/32/1 22/30/1 26/1/1 14/33/1
f 6/28/11 19/25/11 25/13/11 13/27/11
f 4/15/12 11/20/12 24/5/12 21/16/12
f 6/28/13 12/12/13 23/21/13 19/25/13
f 12/12/2 5/11/2 22/22/2 23/21/2
f 13/27/14 25/13/14 21/16/14 8/29/14
f 11/20/2 3/19/2 20/6/2 24/5/2
f 14/33/1 26/1/1 20/4/1 3/34/1
