# Blender v2.92.0 OBJ File: 'ceiling.blend1'
# www.blender.org
mtllib roof.mtl
o Cube
v 1.000000 1.000000 -1.000000
v 0.000000 1.000000 0.000000
v 1.000000 1.000000 1.000000
v -1.000000 1.000000 -1.000000
v -1.000000 1.000000 1.000000
v 1.000000 1.000000 0.000000
v -1.000000 1.000000 0.000000
v 0.000000 1.000000 1.000000
v 0.000000 1.000000 -1.000000
vt 0.250000 0.750000
vt 0.500000 0.750000
vt 0.500000 1.000000
vt 0.250000 1.000000
vt 0.250000 0.339512
vt 0.250000 0.500000
vt 0.000000 0.500000
vt 0.160488 0.250000
vt 0.000000 0.250000
vt 0.000000 0.000000
vt 0.339512 0.250000
vt 0.500000 0.250000
vt 0.500000 0.500000
vt 0.250000 0.160488
vt 0.250000 0.000000
vt 0.500000 0.000000
vt 0.339512 0.160488
vt 0.160488 0.339512
vt 0.250000 0.500000
vt 0.500000 0.500000
vt 0.000000 0.500000
vt 0.000000 0.750000
vt 0.160488 0.160488
vt 0.339512 0.339512
vt 0.000000 1.000000
vn 0.0000 1.0000 0.0000
vn 0.0000 -1.0000 0.0000
usemtl Material
s off
f 2/1/1 7/2/1 5/3/1 8/4/1
f 2/5/2 8/6/2 5/7/2
f 2/8/2 7/9/2 4/10/2
f 2/11/2 6/12/2 3/13/2
f 2/14/2 9/15/2 1/16/2
f 2/17/2 1/16/2 6/12/2
f 2/18/2 5/7/2 7/9/2
f 9/19/1 4/20/1 7/2/1 2/1/1
f 1/21/1 9/19/1 2/1/1 6/22/1
f 2/23/2 4/10/2 9/15/2
f 2/24/2 3/13/2 8/6/2
f 6/22/1 2/1/1 8/4/1 3/25/1
