# Blender v2.92.0 OBJ File: 'Crystal.blend'
# www.blender.org
mtllib itemCrystal.mtl
o Cube
v 0.387581 3.036235 -0.387676
v 0.387581 2.252643 -0.212133
v 0.387581 3.123717 0.330522
v 0.387581 2.216558 0.320812
v -0.391574 3.036235 -0.387676
v -0.391574 2.252643 -0.212133
v -0.391574 3.123717 0.330522
v -0.391574 2.216558 0.320812
v -0.001996 2.191724 -0.812958
v -0.001996 3.382385 0.815816
v -0.001996 1.911880 0.753241
v -0.084171 3.427682 -0.647684
v -0.391574 2.075098 0.001902
v 0.387581 3.238151 0.001902
v -0.391574 3.238151 0.001902
v 0.387581 2.075098 0.001902
v -0.001996 0.755917 0.120174
v -0.001996 4.379961 -0.097478
v -0.391574 3.137193 -0.192887
v 0.387581 2.163871 -0.105116
v -0.391574 2.163871 -0.105116
v 0.387581 3.137193 -0.192887
v -0.024930 1.473821 -0.536275
v -0.043084 3.689511 -0.562321
v -0.391574 2.145828 0.161357
v 0.387581 3.180933 0.166212
v -0.064600 1.333899 0.557760
v -0.001996 3.881173 0.495913
v -0.391574 3.180933 0.166212
v 0.387581 2.145828 0.161357
vt 0.750000 0.687500
vt 0.875000 0.687500
vt 0.875000 0.750000
vt 0.750000 0.750000
vt 0.375000 0.875000
vt 0.625000 0.875000
vt 0.625000 1.000000
vt 0.375000 1.000000
vt 0.375000 0.187500
vt 0.625000 0.187500
vt 0.625000 0.250000
vt 0.375000 0.250000
vt 0.307585 0.836666
vt 0.145338 0.619494
vt 0.184078 0.598859
vt 0.342213 0.676230
vt 0.135633 0.333415
vt 0.176923 0.348104
vt 0.592366 0.375061
vt 0.592366 0.719000
vt 0.454479 0.619399
vt 0.396277 0.407294
vt 0.625000 0.375000
vt 0.375000 0.375000
vt 0.125000 0.687500
vt 0.250000 0.687500
vt 0.250000 0.750000
vt 0.125000 0.750000
vt 0.342213 0.269436
vt 0.257740 0.133784
vt 0.410981 0.651558
vt 0.572075 0.793293
vt 0.472083 0.994174
vt 0.367484 0.683717
vt 0.125000 0.562500
vt 0.250000 0.562500
vt 0.250000 0.625000
vt 0.125000 0.625000
vt 0.079162 0.616329
vt 0.047171 0.347956
vt 0.094342 0.318726
vt 0.106598 0.640130
vt 0.515191 0.183188
vt 0.369245 0.385201
vt 0.342213 0.363108
vt 0.342286 0.000000
vt 0.375000 0.062500
vt 0.625000 0.062500
vt 0.625000 0.125000
vt 0.375000 0.125000
vt 0.750000 0.562500
vt 0.875000 0.562500
vt 0.875000 0.625000
vt 0.750000 0.625000
vt 0.750000 0.500000
vt 0.875000 0.500000
vt 0.051726 0.592528
vt 0.000000 0.377186
vt 0.125000 0.500000
vt 0.250000 0.500000
vt 0.375000 0.000000
vt 0.625000 0.000000
vt 0.105545 0.000000
vt 0.197629 1.000000
vn -0.8476 0.3485 0.4002
vn -0.7627 -0.0197 0.6465
vn -1.0000 -0.0000 0.0000
vn 0.8449 -0.3172 0.4307
vn 1.0000 0.0000 0.0000
vn 0.7115 0.0254 -0.7022
vn -0.7702 -0.0346 -0.6369
vn -0.8529 -0.1849 0.4883
vn 0.7627 -0.0197 0.6465
vn 0.8476 0.3485 0.4002
vn 0.8587 0.3010 -0.4147
vn -0.9103 -0.2979 -0.2874
vn 0.8890 -0.3012 -0.3449
vn -0.8998 0.3059 -0.3110
vn -0.8625 0.3669 -0.3486
vn 0.8442 -0.2497 -0.4744
vn -0.8544 -0.2032 -0.4782
vn 0.7529 0.3468 -0.5594
vn 0.9013 0.3492 0.2562
vn -0.9430 -0.2701 0.1946
vn 0.8892 -0.2604 0.3762
vn -0.9013 0.3492 0.2562
usemtl Material
s off
f 28/1/1 29/2/1 7/3/1 10/4/1
f 11/5/2 10/6/2 7/7/2 8/8/2
f 21/9/3 19/10/3 5/11/3 6/12/3
f 27/13/4 30/14/4 4/15/4 11/16/4
f 30/14/5 26/17/5 3/18/5 4/15/5
f 9/19/6 12/20/6 1/21/6 2/22/6
f 6/12/7 5/11/7 12/23/7 9/24/7
f 25/25/8 27/26/8 11/27/8 8/28/8
f 4/15/9 3/18/9 10/29/9 11/16/9
f 26/17/10 28/30/10 10/29/10 3/18/10
f 22/31/11 24/32/11 18/33/11 14/34/11
f 21/35/12 23/36/12 17/37/12 13/38/12
f 20/39/5 22/40/5 14/41/5 16/42/5
f 23/43/13 20/44/13 16/45/13 17/46/13
f 25/47/3 29/48/3 15/49/3 13/50/3
f 24/51/14 19/52/14 15/53/14 18/54/14
f 12/55/15 5/56/15 19/52/15 24/51/15
f 9/19/16 2/22/16 20/44/16 23/43/16
f 2/57/5 1/58/5 22/40/5 20/39/5
f 6/59/17 9/60/17 23/36/17 21/35/17
f 1/21/18 12/20/18 24/32/18 22/31/18
f 13/50/3 15/49/3 19/10/3 21/9/3
f 8/61/3 7/62/3 29/48/3 25/47/3
f 14/41/19 18/63/19 28/30/19 26/17/19
f 13/38/20 17/37/20 27/26/20 25/25/20
f 16/42/5 14/41/5 26/17/5 30/14/5
f 17/64/21 16/42/21 30/14/21 27/13/21
f 18/54/22 15/53/22 29/2/22 28/1/22
